<svg width="30" height="28" viewBox="0 0 30 28" fill="none" xmlns="http://www.w3.org/2000/svg">
<path d="M29.061 10.8073C29.0376 10.735 28.9927 10.6716 28.9325 10.6254C28.8722 10.5792 28.7993 10.5524 28.7235 10.5485L18.864 10.0558L15.3503 0.832277C15.2408 0.540527 14.76 0.540527 14.6498 0.832277L11.1353 10.0558L1.2765 10.5485C1.2006 10.5524 1.12765 10.5792 1.06734 10.6254C1.00702 10.6717 0.962182 10.7352 0.938759 10.8075C0.915335 10.8798 0.914435 10.9575 0.936177 11.0303C0.957918 11.1031 1.00128 11.1676 1.0605 11.2153L8.74575 17.408L6.16875 26.936C6.1275 27.086 6.1845 27.2458 6.3105 27.3373C6.37207 27.3816 6.44555 27.4064 6.5214 27.4084C6.59724 27.4104 6.67193 27.3895 6.73575 27.3485L15 21.9515L23.2643 27.3485C23.3281 27.3898 23.403 27.4108 23.479 27.4088C23.555 27.4068 23.6287 27.3819 23.6903 27.3373C23.7518 27.2927 23.7983 27.2304 23.8234 27.1587C23.8486 27.087 23.8514 27.0093 23.8313 26.936L21.2535 17.408L28.9388 11.2153C28.9981 11.1677 29.0416 11.1032 29.0634 11.0303C29.0853 10.9574 29.0844 10.8797 29.061 10.8073Z" fill="black"/>
</svg>
